<svg width="43" height="39" viewBox="0 0 43 39" xmlns="http://www.w3.org/2000/svg">
<g filter="url(#filter0_d_5204_1417)">
<path d="M5.75 21.5H24.125C25.0547 21.5 25.875 20.7344 25.875 19.75V7.5C25.875 6.57031 25.0547 5.75 24.125 5.75H5.75C4.76562 5.75 4 6.57031 4 7.5V19.75C4 20.7344 4.76562 21.5 5.75 21.5ZM5.75 7.5H24.125V19.75H5.75V7.5ZM37.9609 15.2656L34.7344 12.0391C34.0781 11.3828 33.2031 11.0547 32.2734 11.0547H28.5C28.0078 11.0547 27.625 11.4375 27.625 11.9297V23.3047H16.4688C15.8125 22.7578 14.9922 22.4297 14.0625 22.4297C12.8047 22.4297 11.7109 22.9766 11 23.9062C10.2344 22.9766 9.14062 22.375 7.9375 22.375C5.75 22.375 4 24.1797 4 26.3125C4 28.5 5.75 30.25 7.9375 30.25C9.14062 30.25 10.2344 29.7031 11 28.7734C11.7109 29.7031 12.8047 30.25 14.0625 30.25C16.1953 30.25 18 28.5 18 26.3125C18 25.875 17.8906 25.4375 17.7266 25H28.5547C28.3906 25.7656 28.4453 26.5312 28.7188 27.3516C29.1562 28.7188 30.3594 29.8125 31.7812 30.1406C34.625 30.8516 37.25 28.6641 37.25 25.875C37.25 25.6016 37.1953 25.3281 37.1406 25H38.125C38.5625 25 39 24.6172 39 24.125V17.7266C39 16.7969 38.6172 15.9219 37.9609 15.2656ZM7.9375 28.5C6.67969 28.5 5.75 27.5703 5.75 26.3125C5.75 25.1094 6.67969 24.125 7.9375 24.125C9.14062 24.125 10.125 25.1094 10.125 26.3125C10.125 27.5703 9.14062 28.5 7.9375 28.5ZM14.0625 28.5C12.8047 28.5 11.875 27.5703 11.875 26.3125C11.875 25.1094 12.8047 24.125 14.0625 24.125C15.2656 24.125 16.25 25.1094 16.25 26.3125C16.25 27.5703 15.2656 28.5 14.0625 28.5ZM29.375 12.75H32.2734C32.7656 12.75 33.2031 12.9688 33.5312 13.2969L36.4844 16.25H29.375V12.75ZM32.875 28.5C31.3984 28.5 30.25 27.3516 30.25 25.875C30.25 24.4531 31.3984 23.25 32.875 23.25C34.2969 23.25 35.5 24.4531 35.5 25.875C35.5 27.3516 34.2969 28.5 32.875 28.5ZM37.25 23.25H36.3203C35.5547 22.2109 34.2969 21.5 32.875 21.5C31.3984 21.5 30.1953 22.2109 29.375 23.25V18H37.25V23.25ZM9.6875 18H10.5625C10.7812 18 11 17.8359 11 17.5625V9.6875C11 9.46875 10.7812 9.25 10.5625 9.25H9.6875C9.41406 9.25 9.25 9.46875 9.25 9.6875V17.5625C9.25 17.8359 9.41406 18 9.6875 18ZM14.9375 18H15.8125C16.0312 18 16.25 17.8359 16.25 17.5625V9.6875C16.25 9.46875 16.0312 9.25 15.8125 9.25H14.9375C14.6641 9.25 14.5 9.46875 14.5 9.6875V17.5625C14.5 17.8359 14.6641 18 14.9375 18ZM20.1875 18H21.0625C21.2812 18 21.5 17.8359 21.5 17.5625V9.6875C21.5 9.46875 21.2812 9.25 21.0625 9.25H20.1875C19.9141 9.25 19.75 9.46875 19.75 9.6875V17.5625C19.75 17.8359 19.9141 18 20.1875 18Z"/>
</g>
<defs>
<filter id="filter0_d_5204_1417" x="0" y="0" width="44" height="44" filterUnits="userSpaceOnUse" color-interpolation-filters="sRGB">
<feFlood flood-opacity="0" result="BackgroundImageFix"/>
<feColorMatrix in="SourceAlpha" type="matrix" values="0 0 0 0 0 0 0 0 0 0 0 0 0 0 0 0 0 0 127 0" result="hardAlpha"/>
<feOffset dy="4"/>
<feGaussianBlur stdDeviation="2"/>
<feComposite in2="hardAlpha" operator="out"/>
<feColorMatrix type="matrix" values="0 0 0 0 0 0 0 0 0 0 0 0 0 0 0 0 0 0 0.25 0"/>
<feBlend mode="normal" in2="BackgroundImageFix" result="effect1_dropShadow_5204_1417"/>
<feBlend mode="normal" in="SourceGraphic" in2="effect1_dropShadow_5204_1417" result="shape"/>
</filter>
</defs>
</svg>
