<svg width="120" height="38" viewBox="0 0 120 38" fill="none" xmlns="http://www.w3.org/2000/svg">
<g clip-path="url(#clip0_5166_4046)">
<path fill-rule="evenodd" clip-rule="evenodd" d="M18.8509 4.19444C20.8162 4.19444 22.6914 4.58127 24.4041 5.28309V10.589V18.7015C24.4041 21.7431 21.9385 24.2088 18.8969 24.2088C17.6035 24.2088 16.4143 23.763 15.4745 23.0166V27.8919C16.5399 28.2889 17.6932 28.5059 18.8969 28.5059C24.8783 28.5059 28.7268 23.7834 28.7268 18.0509V2.79097C25.8547 1.02109 22.472 0 18.8509 0C8.43989 0 -3.05176e-05 8.43992 -3.05176e-05 18.8509C-3.05176e-05 24.7965 2.75252 30.0991 7.05276 33.5542V27.5483C5.25634 25.1154 4.19441 22.1073 4.19441 18.8509C4.19441 10.7564 10.7564 4.19444 18.8509 4.19444Z" fill="#292D33"/>
<path fill-rule="evenodd" clip-rule="evenodd" d="M18.9103 33.5198C16.9447 33.5198 15.0696 33.133 13.3569 32.4312V27.1252V19.0127C13.3569 15.9712 15.8227 13.5054 18.8642 13.5054C20.1576 13.5054 21.3467 13.9513 22.2865 14.6977V9.82236C21.221 9.42532 20.068 9.20833 18.8642 9.20833C12.8828 9.20833 9.03439 13.9309 9.03439 19.6633V34.9233C11.9063 36.6932 15.289 37.7143 18.9103 37.7143C29.3213 37.7143 37.7612 29.2743 37.7612 18.8633C37.7612 12.9178 35.0087 7.61516 30.7084 4.16005V10.1659C32.5048 12.5989 33.5668 15.607 33.5668 18.8633C33.5668 26.9578 27.0048 33.5198 18.9103 33.5198Z" fill="#5C8EE6"/>
<path d="M61.1172 19.3316C61.1172 19.4224 61.081 19.4951 61.0264 19.5496C60.9718 19.6042 60.8811 19.6404 60.7903 19.6404H58.865C58.7743 19.6404 58.7016 19.6042 58.647 19.5496C58.5927 19.4951 58.5381 19.4224 58.52 19.3316L57.6844 15.8807H53.507L52.6714 19.3316C52.6533 19.4224 52.599 19.4951 52.5444 19.5496C52.4898 19.6042 52.4171 19.6404 52.3264 19.6404H50.4011C50.3103 19.6404 50.2196 19.6042 50.165 19.5496C50.1104 19.4951 50.0742 19.4224 50.0742 19.3316C50.0742 19.3135 50.0742 19.3135 50.0923 19.2954C50.0923 19.2773 50.0923 19.2589 50.0923 19.2408L53.0712 7.85284C53.1801 7.43488 53.3436 7.08987 53.5432 6.85374C53.7431 6.61761 53.9793 6.41796 54.2154 6.29071C54.4515 6.16373 54.6877 6.09105 54.9419 6.05458C55.178 6.01838 55.3961 6 55.5957 6C55.7956 6 56.0134 6.01838 56.2676 6.05458C56.5037 6.09105 56.7583 6.16373 56.9944 6.29071C57.2305 6.41796 57.4483 6.61761 57.6482 6.85374C57.8479 7.08987 58.0113 7.43488 58.1205 7.85284L61.0991 19.2408C61.0991 19.2589 61.0991 19.2773 61.1172 19.2954C61.1172 19.3135 61.1172 19.3135 61.1172 19.3316ZM55.8864 8.41587C55.868 8.30672 55.8318 8.23404 55.7956 8.17975C55.7592 8.14327 55.6865 8.12517 55.5957 8.12517C55.5049 8.12517 55.4323 8.14327 55.3961 8.17975C55.3596 8.23404 55.3234 8.30672 55.305 8.41587L53.9974 13.8101H57.194L55.8864 8.41587Z" fill="#292D33"/>
<path d="M70.1079 19.15C70.1079 19.2773 70.0896 19.3681 70.0353 19.4224C69.9807 19.4769 69.8718 19.5131 69.7446 19.5315C69.6176 19.5677 69.4177 19.6042 69.1815 19.6223C68.9273 19.6585 68.655 19.695 68.3643 19.7131C68.0736 19.7312 67.7831 19.7493 67.4743 19.7676C67.1655 19.7857 66.8929 19.7857 66.6568 19.7857C66.0575 19.7857 65.5126 19.7312 65.0041 19.6404C64.4954 19.5496 64.0596 19.35 63.6781 19.0774C63.2967 18.805 63.0062 18.4416 62.7882 17.9513C62.5702 17.4609 62.4613 16.8433 62.4613 16.0622V6.50873C62.4613 6.41795 62.4975 6.3269 62.5702 6.2545C62.6428 6.18183 62.7336 6.14535 62.8247 6.14535H64.6227C64.7134 6.14535 64.8042 6.18183 64.8769 6.2545C64.9496 6.3269 64.986 6.41795 64.986 6.50873V16.0622C64.986 16.6618 65.0949 17.0794 65.2946 17.2975C65.4945 17.5152 65.876 17.6244 66.4025 17.6244H69.7446C69.8353 17.6244 69.9261 17.6606 69.9988 17.7333C70.0715 17.8059 70.1079 17.8967 70.1079 17.9875V19.15ZM74.358 19.2773C74.358 19.3681 74.3215 19.4588 74.2489 19.5315C74.1765 19.6042 74.0854 19.6404 73.9946 19.6404H72.1966C72.1059 19.6404 72.0151 19.6042 71.9424 19.5315C71.8697 19.4588 71.8333 19.3681 71.8333 19.2773V6.49063C71.8333 6.39958 71.8697 6.30881 71.9424 6.23613C72.0151 6.18183 72.1059 6.14535 72.1966 6.14535H73.9946C74.0854 6.14535 74.1765 6.18183 74.2489 6.23613C74.3215 6.30881 74.358 6.39958 74.358 6.49063V19.2773ZM87.1082 19.3316C87.1082 19.4224 87.072 19.495 87.0174 19.5496C86.9631 19.6042 86.8721 19.6404 86.7813 19.6404H84.856C84.7653 19.6404 84.6926 19.6042 84.638 19.5496C84.5837 19.495 84.5291 19.4224 84.511 19.3316L83.6754 15.8807H79.498L78.6626 19.3316C78.6443 19.4224 78.59 19.495 78.5354 19.5496C78.4808 19.6042 78.4084 19.6404 78.3174 19.6404H76.3921C76.3013 19.6404 76.2106 19.6042 76.156 19.5496C76.1017 19.495 76.0652 19.4224 76.0652 19.3316C76.0652 19.3135 76.0652 19.3135 76.0833 19.2954C76.0833 19.2773 76.0833 19.2589 76.0833 19.2408L79.0622 7.85283C79.1711 7.43487 79.3346 7.08987 79.5345 6.85374C79.7341 6.61761 79.9703 6.41796 80.2064 6.29071C80.4425 6.16373 80.6787 6.09105 80.9329 6.05458C81.169 6.01838 81.3871 6 81.5867 6C81.7866 6 82.0044 6.01838 82.2589 6.05458C82.495 6.09105 82.7493 6.16373 82.9854 6.29071C83.2215 6.41796 83.4393 6.61761 83.6392 6.85374C83.8389 7.08987 84.0026 7.43487 84.1115 7.85283L87.0901 19.2408C87.0901 19.2589 87.0901 19.2773 87.1082 19.2954C87.1082 19.3135 87.1082 19.3135 87.1082 19.3316ZM81.8774 8.41587C81.8593 8.30671 81.8228 8.23404 81.7866 8.17974C81.7502 8.14326 81.6775 8.12516 81.5867 8.12516C81.4959 8.12516 81.4233 8.14326 81.3871 8.17974C81.3506 8.23404 81.3144 8.30671 81.2963 8.41587L79.9884 13.8101H83.185L81.8774 8.41587ZM99.023 18.9139C99.023 19.1138 98.9506 19.2954 98.8234 19.4224C98.678 19.5677 98.4964 19.6404 98.2965 19.6404H96.4621C96.2443 19.6404 96.0444 19.6042 95.8628 19.5496C95.6629 19.495 95.4994 19.3135 95.3541 18.9866L91.3221 10.1412C91.2675 10.0504 91.2132 9.99583 91.1586 9.99583C91.104 9.99583 91.0678 10.0504 91.0678 10.1412V19.2773C91.0678 19.3681 91.0313 19.4588 90.9771 19.5315C90.9044 19.6042 90.8136 19.6404 90.7228 19.6404H89.1788C89.088 19.6404 88.9972 19.6042 88.9246 19.5315C88.8519 19.4588 88.8157 19.3681 88.8157 19.2773V6.87184C88.8157 6.67219 88.8884 6.49064 89.0334 6.34528C89.1607 6.21803 89.3422 6.14535 89.5422 6.14535H91.5036C91.7035 6.14535 91.8489 6.18183 91.9759 6.2545C92.085 6.3269 92.1939 6.49063 92.3028 6.72648L96.5347 16.0622C96.5712 16.153 96.6255 16.2076 96.6801 16.2076C96.7347 16.2076 96.7709 16.153 96.7709 16.0441V6.49063C96.7709 6.2545 96.88 6.14535 97.1159 6.14535H98.678C98.9141 6.14535 99.023 6.2545 99.023 6.49063V18.9139ZM109.776 19.0774C109.776 19.2046 109.739 19.2954 109.667 19.35C109.594 19.4043 109.503 19.4588 109.376 19.495C109.303 19.5131 109.176 19.5496 109.013 19.5677C108.831 19.6042 108.613 19.6404 108.359 19.6769C108.105 19.695 107.814 19.7312 107.505 19.7493C107.197 19.7676 106.851 19.7857 106.506 19.7857C105.961 19.7857 105.38 19.7131 104.781 19.5496C104.181 19.3862 103.618 19.0955 103.128 18.6778C102.619 18.2601 102.22 17.6971 101.875 16.9887C101.548 16.2803 101.384 15.3539 101.384 14.2278V11.558C101.384 10.4138 101.548 9.48737 101.875 8.76088C102.22 8.05249 102.619 7.48946 103.128 7.07177C103.618 6.65409 104.181 6.38148 104.781 6.21803C105.38 6.07267 105.961 6 106.506 6C106.851 6 107.197 6.01837 107.505 6.03647C107.814 6.05457 108.105 6.09105 108.359 6.10915C108.613 6.14535 108.831 6.18183 109.013 6.21803C109.176 6.2545 109.303 6.27261 109.376 6.29071C109.503 6.3269 109.594 6.36338 109.667 6.41795C109.739 6.47225 109.776 6.58141 109.776 6.70839V7.92551C109.776 8.03439 109.757 8.12517 109.703 8.19784C109.648 8.27052 109.539 8.30672 109.412 8.30672H109.376C109.213 8.28862 109.031 8.27052 108.813 8.25242C108.577 8.23404 108.341 8.23404 108.086 8.21594C107.832 8.19784 107.578 8.19784 107.305 8.17974C107.033 8.16164 106.779 8.16164 106.542 8.16164C106.161 8.16164 105.798 8.21595 105.489 8.3251C105.162 8.45207 104.89 8.63363 104.654 8.88813C104.418 9.16046 104.236 9.50546 104.109 9.94153C103.982 10.3773 103.909 10.9222 103.909 11.558V14.2278C103.909 14.8635 103.982 15.3903 104.109 15.8261C104.236 16.2622 104.418 16.6072 104.654 16.8798C104.89 17.1521 105.162 17.3337 105.489 17.4428C105.798 17.5698 106.161 17.6244 106.542 17.6244C106.779 17.6244 107.033 17.6244 107.305 17.6063C107.578 17.5879 107.832 17.5879 108.086 17.5698C108.341 17.5517 108.577 17.5336 108.813 17.5152C109.031 17.4971 109.213 17.4971 109.376 17.479H109.412C109.539 17.479 109.648 17.5152 109.703 17.5879C109.757 17.6606 109.776 17.7514 109.776 17.8605V19.0774ZM120.001 19.15C120.001 19.2773 119.983 19.3681 119.929 19.4224C119.874 19.4769 119.765 19.5131 119.638 19.5315C119.493 19.5496 119.329 19.5858 119.166 19.6042C118.984 19.6404 118.766 19.6769 118.512 19.695C118.239 19.7131 117.931 19.7493 117.567 19.7676C117.186 19.7857 116.732 19.7857 116.187 19.7857C115.588 19.7857 115.043 19.7312 114.534 19.6404C114.026 19.5496 113.571 19.35 113.208 19.0774C112.827 18.805 112.518 18.4416 112.3 17.9513C112.082 17.4609 111.973 16.8433 111.973 16.0622V9.7235C111.973 8.94243 112.082 8.3251 112.3 7.83446C112.518 7.3441 112.827 6.96261 113.208 6.69028C113.571 6.41796 114.026 6.23613 114.534 6.14535C115.043 6.05458 115.588 6 116.187 6C116.732 6 117.186 6 117.567 6.01838C117.931 6.03648 118.239 6.07267 118.512 6.09105C118.766 6.10915 118.984 6.14535 119.166 6.16373C119.329 6.19993 119.493 6.23613 119.638 6.2545C119.765 6.2726 119.874 6.3088 119.929 6.36338C119.983 6.41796 120.001 6.50873 120.001 6.63571V7.79826C120.001 7.88903 119.965 7.97981 119.892 8.05249C119.82 8.12517 119.729 8.16164 119.638 8.16164H115.933C115.406 8.16164 115.025 8.27052 114.825 8.48855C114.607 8.7063 114.498 9.12399 114.498 9.7235V11.6852H119.42C119.511 11.6852 119.602 11.7214 119.674 11.7941C119.747 11.8668 119.783 11.9575 119.783 12.0483V13.3559C119.783 13.447 119.747 13.5378 119.674 13.6104C119.602 13.6831 119.511 13.7193 119.42 13.7193H114.498V16.0622C114.498 16.6618 114.607 17.0794 114.825 17.2975C115.025 17.5152 115.406 17.6244 115.933 17.6244H119.638C119.729 17.6244 119.82 17.6606 119.892 17.7333C119.965 17.8059 120.001 17.8967 120.001 17.9875V19.15Z" fill="#292D33"/>
<path d="M56.4651 25.703C56.4651 26.2128 56.3724 26.6414 56.1986 26.9886C56.0135 27.3361 55.7704 27.6143 55.4574 27.8226C55.1564 28.0428 54.7975 28.1932 54.4035 28.2742C53.9983 28.367 53.5698 28.4135 53.1178 28.4135C52.9675 28.4135 52.7937 28.4018 52.5851 28.3901C52.3883 28.3787 52.2145 28.3787 52.087 28.367V31.3899C52.087 31.4478 52.0639 31.5057 52.0291 31.5522C51.9828 31.5984 51.9249 31.6215 51.867 31.6215H50.7089C50.651 31.6215 50.5931 31.5984 50.5466 31.5522C50.5003 31.5057 50.4772 31.4478 50.4772 31.3899V23.4213C50.4772 23.3055 50.512 23.2245 50.5814 23.1665C50.6393 23.1203 50.732 23.0855 50.8479 23.0741C51.1489 23.0276 51.4964 22.9928 51.8901 22.9582C52.2841 22.9349 52.701 22.9234 53.1295 22.9234C53.5698 22.9234 53.9983 22.9697 54.4035 23.0507C54.7975 23.1317 55.1564 23.2824 55.4574 23.4909C55.7704 23.6995 56.0135 23.9774 56.1986 24.3132C56.3724 24.6607 56.4651 25.0893 56.4651 25.5988V25.703ZM54.8554 25.5871C54.8554 25.101 54.7162 24.7534 54.4268 24.5566C54.1372 24.348 53.697 24.2439 53.1178 24.2439C53.0599 24.2439 52.9789 24.2439 52.8861 24.2439C52.782 24.2553 52.6893 24.2553 52.5851 24.2553C52.481 24.267 52.3883 24.267 52.3072 24.267C52.2145 24.2784 52.1449 24.2784 52.087 24.2901V27.0582C52.1335 27.0582 52.2028 27.0582 52.3072 27.0582C52.4 27.0699 52.5041 27.0699 52.6082 27.0699C52.7127 27.0813 52.8051 27.0813 52.9095 27.0813C53.002 27.093 53.0716 27.093 53.1178 27.093C53.7432 27.093 54.1952 26.9772 54.4614 26.7455C54.7278 26.5138 54.8554 26.1663 54.8554 25.6916V25.5871ZM63.982 31.4826C63.982 31.5753 63.9358 31.6215 63.8431 31.6215H62.4299C62.372 31.6215 62.3258 31.5984 62.291 31.5522C62.2564 31.5057 62.233 31.4478 62.1985 31.3899L60.5306 28.309H60.3685C60.2179 28.309 60.0324 28.2976 59.8356 28.2859C59.6387 28.2742 59.4649 28.2742 59.3377 28.2628V31.3899C59.3377 31.4478 59.3143 31.5057 59.2798 31.5522C59.2333 31.5984 59.1753 31.6215 59.1174 31.6215H57.9593C57.9014 31.6215 57.8435 31.5984 57.7973 31.5522C57.7508 31.5057 57.7276 31.4478 57.7276 31.3899V23.4213C57.7276 23.3055 57.7625 23.2245 57.8318 23.1665C57.8897 23.1203 57.9824 23.0855 58.0983 23.0741C58.3993 23.0276 58.7468 22.9928 59.1408 22.9582C59.5345 22.9349 59.9514 22.9234 60.3799 22.9234C60.8202 22.9234 61.2487 22.9697 61.6541 23.0507C62.0479 23.1434 62.4068 23.2941 62.7081 23.4909C63.0208 23.6878 63.2639 23.9543 63.4493 24.2901C63.6231 24.6259 63.7155 25.043 63.7155 25.5409V25.6451C63.7155 26.2591 63.5766 26.7686 63.287 27.1509C63.0091 27.533 62.6268 27.8226 62.1406 28.008L63.9589 31.3899C63.9703 31.4133 63.982 31.4478 63.982 31.4826ZM62.1058 25.5409C62.1058 25.101 61.9668 24.7883 61.6773 24.5911C61.3877 24.3942 60.9474 24.3018 60.3685 24.3018C60.3106 24.3018 60.2293 24.3018 60.1368 24.3018C60.0324 24.3132 59.94 24.3132 59.8356 24.3132C59.7314 24.3249 59.6387 24.3249 59.5577 24.3249C59.4649 24.3363 59.3956 24.3363 59.3377 24.348V26.9541C59.3839 26.9541 59.4535 26.9541 59.5577 26.9541C59.6504 26.9655 59.7545 26.9655 59.8587 26.9655C59.9631 26.9772 60.0555 26.9772 60.16 26.9772C60.2527 26.9886 60.322 26.9886 60.3685 26.9886C60.9705 26.9886 61.4108 26.8962 61.6887 26.6993C61.9668 26.5024 62.1058 26.1549 62.1058 25.6451V25.5409Z" fill="#5C8EE6"/>
<path d="M71.4179 28.1008C71.4179 28.7376 71.3366 29.2937 71.1745 29.7453C71.0008 30.197 70.7808 30.5676 70.4795 30.8572C70.1902 31.1468 69.8427 31.3668 69.4372 31.5057C69.0435 31.6447 68.6033 31.7143 68.1285 31.7143C67.642 31.7143 67.2018 31.6447 66.8081 31.5057C66.4026 31.3668 66.0551 31.1468 65.7658 30.8572C65.4762 30.5676 65.2445 30.197 65.0822 29.7453C64.9085 29.2937 64.8274 28.7376 64.8274 28.1008V26.537C64.8274 25.9001 64.9085 25.3558 65.0822 24.8924C65.2445 24.4408 65.4762 24.0584 65.7658 23.7688C66.0551 23.4792 66.4026 23.271 66.8081 23.1317C67.2018 22.9928 67.642 22.9234 68.1285 22.9234C68.6033 22.9234 69.0435 22.9928 69.4372 23.1317C69.8427 23.271 70.1902 23.4792 70.4795 23.7688C70.7808 24.0584 71.0008 24.4408 71.1745 24.8924C71.3366 25.3558 71.4179 25.9001 71.4179 26.537V28.1008ZM69.8079 26.537C69.8079 25.7609 69.6689 25.2051 69.391 24.8459C69.1245 24.4987 68.696 24.3249 68.1285 24.3249C67.5493 24.3249 67.1208 24.4987 66.8543 24.8459C66.5764 25.2051 66.4374 25.7609 66.4374 26.537V28.1008C66.4374 28.8766 66.5764 29.4326 66.8543 29.7801C67.1208 30.1391 67.5493 30.3128 68.1285 30.3128C68.696 30.3128 69.1245 30.1391 69.391 29.7801C69.6689 29.4326 69.8079 28.8766 69.8079 28.1008V26.537ZM79.1662 28.1701C79.1662 29.3168 78.8535 30.197 78.2164 30.7993C77.591 31.4133 76.6877 31.7143 75.5296 31.7143C75.3093 31.7143 75.101 31.7143 74.8693 31.7026C74.6377 31.6912 74.4177 31.6795 74.2091 31.6681C73.9889 31.6564 73.8037 31.6333 73.6299 31.6216C73.4562 31.6102 73.3172 31.5868 73.2362 31.5754C73.1321 31.5637 73.0624 31.5291 73.0162 31.4712C72.9583 31.4133 72.9349 31.332 72.9349 31.2161V23.4213C72.9349 23.3055 72.9583 23.2245 73.0162 23.1665C73.0624 23.1086 73.1321 23.0741 73.2362 23.0624C73.3172 23.0507 73.4562 23.0276 73.6299 23.0162C73.8037 23.0045 73.9889 22.9814 74.2091 22.9697C74.4177 22.9583 74.6377 22.9466 74.8693 22.9349C75.101 22.9234 75.3093 22.9234 75.5296 22.9234C76.6877 22.9234 77.591 23.2245 78.2164 23.8268C78.8535 24.4408 79.1662 25.3209 79.1662 26.4676V28.1701ZM77.5564 26.4676C77.5564 26.0391 77.5099 25.6799 77.4058 25.402C77.3016 25.1124 77.151 24.8924 76.9772 24.7187C76.7918 24.5566 76.5718 24.4408 76.3287 24.3711C76.0739 24.3132 75.8075 24.2784 75.5179 24.2784C75.2979 24.2784 75.1124 24.2784 74.9618 24.2901C74.8114 24.3018 74.6725 24.3018 74.5449 24.3132V30.3359C74.6725 30.3476 74.8114 30.3476 74.9618 30.3591C75.1124 30.3707 75.2979 30.3708 75.5179 30.3708C75.8075 30.3708 76.0739 30.3359 76.3287 30.2666C76.5718 30.2087 76.7918 30.0929 76.9772 29.9191C77.151 29.757 77.3016 29.5368 77.4058 29.2472C77.5099 28.9693 77.5564 28.6103 77.5564 28.1818V26.4676ZM86.9727 28.4366C86.9727 29.0503 86.8916 29.5716 86.741 29.9884C86.5789 30.4056 86.3587 30.7414 86.0808 30.9962C85.7912 31.2509 85.4554 31.4364 85.073 31.5405C84.6793 31.6564 84.2508 31.7143 83.7874 31.7143C83.3244 31.7143 82.8958 31.6564 82.5135 31.5405C82.1198 31.4364 81.7839 31.2509 81.5058 30.9962C81.2162 30.7414 80.9962 30.4056 80.8455 29.9884C80.6835 29.5716 80.6025 29.0503 80.6025 28.4366V23.2362C80.6025 23.1782 80.6256 23.1203 80.6721 23.0741C80.7183 23.0393 80.7762 23.0162 80.8341 23.0162H81.9808C82.0387 23.0162 82.0966 23.0393 82.1429 23.0741C82.1891 23.1203 82.2125 23.1782 82.2125 23.2362V28.448C82.2125 28.7724 82.2356 29.062 82.2818 29.3051C82.3283 29.5485 82.4093 29.757 82.5366 29.9191C82.6524 30.0812 82.8145 30.197 83.0116 30.278C83.2085 30.3591 83.4747 30.3939 83.7874 30.3939C84.1004 30.3939 84.3552 30.3591 84.5635 30.278C84.7603 30.197 84.9227 30.0812 85.0499 29.9191C85.1658 29.757 85.2468 29.5485 85.2933 29.3051C85.3395 29.062 85.3626 28.7724 85.3626 28.448V23.2362C85.3626 23.1782 85.386 23.1203 85.4323 23.0741C85.4785 23.0393 85.5364 23.0162 85.5943 23.0162H86.741C86.7989 23.0162 86.8568 23.0393 86.9031 23.0741C86.9496 23.1203 86.9727 23.1782 86.9727 23.2362V28.4366ZM93.7714 31.2626C93.7714 31.3437 93.7483 31.4016 93.7018 31.4364C93.6556 31.4712 93.5977 31.5057 93.5166 31.5291C93.4701 31.5405 93.3891 31.5637 93.285 31.5754C93.1691 31.5985 93.0302 31.6216 92.8681 31.6447C92.7058 31.6564 92.5206 31.6795 92.3237 31.6912C92.1266 31.7026 91.9066 31.7143 91.6866 31.7143C91.3391 31.7143 90.9685 31.6681 90.5862 31.5637C90.2041 31.4595 89.8449 31.2741 89.5322 31.0079C89.2081 30.7414 88.9533 30.3824 88.7331 29.9305C88.5248 29.4789 88.4204 28.8882 88.4204 28.1701V26.4676C88.4204 25.7378 88.5248 25.1472 88.7331 24.6838C88.9533 24.2322 89.2081 23.8733 89.5322 23.6068C89.8449 23.3403 90.2041 23.1665 90.5862 23.0624C90.9685 22.9697 91.3391 22.9234 91.6866 22.9234C91.9066 22.9234 92.1266 22.9349 92.3237 22.9466C92.5206 22.9582 92.7058 22.9814 92.8681 22.9928C93.0302 23.0162 93.1691 23.0393 93.285 23.0624C93.3891 23.0855 93.4701 23.0972 93.5166 23.1086C93.5977 23.1317 93.6556 23.1551 93.7018 23.1896C93.7483 23.2245 93.7714 23.2941 93.7714 23.3751V24.1512C93.7714 24.2205 93.7597 24.2784 93.7249 24.3249C93.6904 24.3711 93.6208 24.3942 93.5397 24.3942H93.5166C93.4122 24.3828 93.2964 24.3711 93.1574 24.3594C93.0071 24.348 92.8564 24.348 92.6944 24.3363C92.532 24.3249 92.37 24.3249 92.1962 24.3132C92.0224 24.3018 91.8604 24.3018 91.7097 24.3018C91.4667 24.3018 91.235 24.3363 91.0381 24.4059C90.8296 24.487 90.6558 24.6028 90.5051 24.7649C90.3545 24.9386 90.2387 25.1589 90.1576 25.4368C90.0766 25.7147 90.0304 26.0622 90.0304 26.4676V28.1701C90.0304 28.5755 90.0766 28.9114 90.1576 29.1893C90.2387 29.4674 90.3545 29.6874 90.5051 29.8612C90.6558 30.0349 90.8296 30.1508 91.0381 30.2201C91.235 30.3011 91.4667 30.3359 91.7097 30.3359C91.8604 30.3359 92.0224 30.3359 92.1962 30.3245C92.37 30.3128 92.532 30.3128 92.6944 30.3011C92.8564 30.2897 93.0071 30.278 93.1574 30.2666C93.2964 30.2549 93.4122 30.2549 93.5166 30.2432H93.5397C93.6208 30.2432 93.6904 30.2666 93.7249 30.3128C93.7597 30.3591 93.7714 30.417 93.7714 30.4866V31.2626ZM100.721 24.1512C100.721 24.2091 100.697 24.267 100.651 24.3018C100.605 24.3363 100.547 24.3594 100.489 24.3594H98.4623V31.3899C98.4623 31.4478 98.4389 31.5057 98.3927 31.5522C98.3464 31.5985 98.2885 31.6216 98.2306 31.6216H97.0839C97.026 31.6216 96.9681 31.5985 96.9219 31.5522C96.8754 31.5057 96.8523 31.4478 96.8523 31.3899V24.3594H94.8254C94.7675 24.3594 94.7095 24.3363 94.6633 24.3018C94.6168 24.267 94.5937 24.2091 94.5937 24.1512V23.2362C94.5937 23.1782 94.6168 23.1203 94.6633 23.0741C94.7095 23.0393 94.7675 23.0162 94.8254 23.0162H100.489C100.547 23.0162 100.605 23.0393 100.651 23.0741C100.697 23.1203 100.721 23.1782 100.721 23.2362V24.1512ZM103.489 31.3899C103.489 31.4478 103.466 31.5057 103.419 31.5522C103.373 31.5985 103.315 31.6216 103.257 31.6216H102.111C102.053 31.6216 101.995 31.5985 101.949 31.5522C101.902 31.5057 101.879 31.4478 101.879 31.3899V23.2362C101.879 23.1782 101.902 23.1203 101.949 23.0741C101.995 23.0393 102.053 23.0162 102.111 23.0162H103.257C103.315 23.0162 103.373 23.0393 103.419 23.0741C103.466 23.1203 103.489 23.1782 103.489 23.2362V31.3899ZM111.585 28.1008C111.585 28.7376 111.504 29.2937 111.342 29.7453C111.168 30.197 110.948 30.5676 110.647 30.8572C110.357 31.1468 110.01 31.3668 109.604 31.5057C109.21 31.6447 108.77 31.7143 108.295 31.7143C107.809 31.7143 107.369 31.6447 106.975 31.5057C106.57 31.3668 106.222 31.1468 105.933 30.8572C105.643 30.5676 105.411 30.197 105.249 29.7453C105.076 29.2937 104.995 28.7376 104.995 28.1008V26.537C104.995 25.9001 105.076 25.3558 105.249 24.8924C105.411 24.4408 105.643 24.0584 105.933 23.7688C106.222 23.4792 106.57 23.271 106.975 23.1317C107.369 22.9928 107.809 22.9234 108.295 22.9234C108.77 22.9234 109.21 22.9928 109.604 23.1317C110.01 23.271 110.357 23.4792 110.647 23.7688C110.948 24.0584 111.168 24.4408 111.342 24.8924C111.504 25.3558 111.585 25.9001 111.585 26.537V28.1008ZM109.975 26.537C109.975 25.7609 109.836 25.2051 109.558 24.8459C109.291 24.4987 108.863 24.3249 108.295 24.3249C107.716 24.3249 107.288 24.4987 107.021 24.8459C106.744 25.2051 106.604 25.7609 106.604 26.537V28.1008C106.604 28.8766 106.744 29.4326 107.021 29.7801C107.288 30.1391 107.716 30.3128 108.295 30.3128C108.863 30.3128 109.291 30.1391 109.558 29.7801C109.836 29.4326 109.975 28.8766 109.975 28.1008V26.537ZM119.611 31.1585C119.611 31.2858 119.565 31.4016 119.484 31.4826C119.391 31.5753 119.275 31.6216 119.148 31.6216H117.978C117.839 31.6216 117.712 31.5985 117.596 31.5637C117.469 31.5291 117.364 31.4133 117.272 31.2047L114.7 25.564C114.666 25.5061 114.631 25.4716 114.596 25.4716C114.561 25.4716 114.538 25.5061 114.538 25.564V31.3899C114.538 31.4478 114.515 31.5057 114.48 31.5522C114.434 31.5985 114.376 31.6216 114.318 31.6216H113.334C113.276 31.6216 113.218 31.5985 113.172 31.5522C113.125 31.5057 113.102 31.4478 113.102 31.3899V23.4792C113.102 23.352 113.148 23.2361 113.241 23.1434C113.322 23.0624 113.438 23.0162 113.565 23.0162H114.816C114.943 23.0162 115.036 23.0393 115.117 23.0855C115.187 23.1317 115.256 23.2361 115.326 23.3868L118.025 29.3399C118.048 29.3978 118.082 29.4326 118.117 29.4326C118.152 29.4326 118.175 29.3978 118.175 29.3285V23.2362C118.175 23.0855 118.245 23.0162 118.395 23.0162H119.391C119.542 23.0162 119.611 23.0855 119.611 23.2362V31.1585Z" fill="#5C8EE6"/>
</g>
<defs>
<clipPath id="clip0_5166_4046">
<rect width="120" height="37.7143" fill="white"/>
</clipPath>
</defs>
</svg>
